<svg xmlns="http://www.w3.org/2000/svg" xmlns:xlink="http://www.w3.org/1999/xlink" viewBox="0,0,256,256" width="50px" height="50px"><g fill="#feffff" fill-rule="nonzero" stroke="none" stroke-width="1" stroke-linecap="butt" stroke-linejoin="miter" stroke-miterlimit="10" stroke-dasharray="" stroke-dashoffset="0" font-family="none" font-weight="none" font-size="none" text-anchor="none" style="mix-blend-mode: normal"><g transform="scale(5.12,5.12)"><path d="M43.937,19.352c1.818,-4.849 0.685,-8.053 -0.587,-9.888c-1.996,-2.879 -5.682,-4.464 -10.38,-4.464h-17.97c-0.404,0 -0.77,0.243 -0.924,0.617c-0.155,0.374 -0.069,0.804 0.217,1.09l3.588,3.588l-7.762,28.138l-5.76,4.799c-0.323,0.27 -0.443,0.713 -0.3,1.109c0.144,0.395 0.52,0.659 0.941,0.659h16c0.332,0 0.642,-0.165 0.828,-0.439c0.186,-0.274 0.224,-0.624 0.101,-0.932l-1.89,-4.725l1.78,-8.904h4.412l3.803,14.258c0.116,0.437 0.513,0.742 0.966,0.742h10c0.404,0 0.77,-0.243 0.924,-0.617c0.155,-0.374 0.069,-0.804 -0.217,-1.09l-3.813,-3.813l-2.692,-9.873c5.782,-2.538 8.611,-9.927 8.735,-10.255zM26.778,11.915c1.521,-0.107 5.486,0.002 7.316,3.908c1.43,3.052 -0.81,6.935 -1.621,8.177h-9.147z"></path></g></g></svg>